<svg xmlns="http://www.w3.org/2000/svg" width="1000" height="760" viewBox="0 0 1000 760" font-family="Helvetica, Arial, sans-serif"><defs><marker id="dep" markerWidth="11" markerHeight="10" refX="9" refY="5" orient="auto" markerUnits="userSpaceOnUse"><path d="M0,0 L9,5 L0,10" fill="none" stroke="#000" stroke-width="1.5"/></marker></defs><rect width="1000" height="760" fill="#fff"/><g><polyline points="791.35,350 620.55,350" fill="none" stroke="#000" stroke-width="1.5"/><polyline points="805.95,105 700,105 700,330 620.55,330" fill="none" stroke="#000" stroke-width="1.5" stroke-dasharray="6 4" marker-end="url(#dep)"/><polyline points="620.55,420 710,420 710,615 805.95,615" fill="none" stroke="#000" stroke-width="1.5" stroke-dasharray="6 4" marker-end="url(#dep)"/><polyline points="880,600 880,471" fill="none" stroke="#000" stroke-width="1.5" stroke-dasharray="6 4" marker-end="url(#dep)"/><polyline points="510,600 510,438" fill="none" stroke="#000" stroke-width="1.5" stroke-dasharray="6 4" marker-end="url(#dep)"/><polyline points="613.25,643 805.95,643" fill="none" stroke="#000" stroke-width="1.5" stroke-dasharray="6 4" marker-end="url(#dep)"/><polyline points="231.35,336 399.45,336" fill="none" stroke="#000" stroke-width="1.5" stroke-dasharray="6 4" marker-end="url(#dep)"/><polyline points="270.55,506 340,506 340,410 399.45,410" fill="none" stroke="#000" stroke-width="1.5" stroke-dasharray="6 4" marker-end="url(#dep)"/><polyline points="510,127 510,300" fill="none" stroke="#000" stroke-width="1.5" stroke-dasharray="6 4" marker-end="url(#dep)"/><polyline points="457.85,88 150,88 150,300" fill="none" stroke="#000" stroke-width="1.5" stroke-dasharray="6 4" marker-end="url(#dep)"/><polyline points="457.85,70 28,70 28,506 49.45,506" fill="none" stroke="#000" stroke-width="1.5" stroke-dasharray="6 4" marker-end="url(#dep)"/><polyline points="457.85,55 12,55 12,720 510,720 510,687" fill="none" stroke="#000" stroke-width="1.5" stroke-dasharray="6 4" marker-end="url(#dep)"/></g><g><rect x="457.85" y="40" width="104.3" height="87" fill="#fff" stroke="#000" stroke-width="1.5"/><line x1="457.85" y1="69" x2="562.15" y2="69" stroke="#000" stroke-width="1.5"/><line x1="457.85" y1="98" x2="562.15" y2="98" stroke="#000" stroke-width="1.5"/><rect x="805.95" y="60" width="148.1" height="89" fill="#fff" stroke="#000" stroke-width="1.5"/><line x1="805.95" y1="89" x2="954.0500000000001" y2="89" stroke="#000" stroke-width="1.5"/><line x1="805.95" y1="103" x2="954.0500000000001" y2="103" stroke="#000" stroke-width="1.5"/><rect x="399.45" y="300" width="221.1" height="138" fill="#fff" stroke="#000" stroke-width="1.5"/><line x1="399.45" y1="329" x2="620.55" y2="329" stroke="#000" stroke-width="1.5"/><line x1="399.45" y1="358" x2="620.55" y2="358" stroke="#000" stroke-width="1.5"/><rect x="791.35" y="280" width="177.29999999999998" height="191" fill="#fff" stroke="#000" stroke-width="1.5"/><line x1="791.35" y1="309" x2="968.65" y2="309" stroke="#000" stroke-width="1.5"/><line x1="791.35" y1="457" x2="968.65" y2="457" stroke="#000" stroke-width="1.5"/><rect x="68.65" y="300" width="162.7" height="72" fill="#fff" stroke="#000" stroke-width="1.5"/><line x1="68.65" y1="329" x2="231.35" y2="329" stroke="#000" stroke-width="1.5"/><line x1="68.65" y1="343" x2="231.35" y2="343" stroke="#000" stroke-width="1.5"/><rect x="49.45" y="470" width="221.1" height="72" fill="#fff" stroke="#000" stroke-width="1.5"/><line x1="49.45" y1="499" x2="270.55" y2="499" stroke="#000" stroke-width="1.5"/><line x1="49.45" y1="513" x2="270.55" y2="513" stroke="#000" stroke-width="1.5"/><rect x="406.75" y="600" width="206.5" height="87" fill="#fff" stroke="#000" stroke-width="1.5"/><line x1="406.75" y1="629" x2="613.25" y2="629" stroke="#000" stroke-width="1.5"/><line x1="406.75" y1="658" x2="613.25" y2="658" stroke="#000" stroke-width="1.5"/><rect x="805.95" y="600" width="148.1" height="72" fill="#fff" stroke="#000" stroke-width="1.5"/><line x1="805.95" y1="629" x2="954.0500000000001" y2="629" stroke="#000" stroke-width="1.5"/><line x1="805.95" y1="643" x2="954.0500000000001" y2="643" stroke="#000" stroke-width="1.5"/><polygon points="620.55,350 629.55,344.0 638.55,350 629.55,356.0" fill="#000" stroke="#000"/></g><g><text x="510" y="60" font-size="13" text-anchor="middle" font-weight="bold">UI</text><text x="469.85" y="88" font-size="13" text-anchor="start">-screens</text><text x="469.85" y="117" font-size="13" text-anchor="start">+mainloop()</text><text x="880" y="80" font-size="13" text-anchor="middle" font-weight="bold">Storage</text><text x="817.95" y="122" font-size="13" text-anchor="start">+save(catalogue)</text><text x="817.95" y="139" font-size="13" text-anchor="start">+load() Catalogue</text><text x="510" y="320" font-size="13" text-anchor="middle" font-weight="bold">Catalogue</text><text x="411.45" y="348" font-size="13" text-anchor="start">-products : list of Product</text><text x="411.45" y="377" font-size="13" text-anchor="start">+add(product)</text><text x="411.45" y="394" font-size="13" text-anchor="start">+edit(product)</text><text x="411.45" y="411" font-size="13" text-anchor="start">+delete(product)</text><text x="411.45" y="428" font-size="13" text-anchor="start">+get_category(name)</text><text x="880" y="300" font-size="13" text-anchor="middle" font-weight="bold">Product</text><text x="803.35" y="328" font-size="13" text-anchor="start">-name : str</text><text x="803.35" y="345" font-size="13" text-anchor="start">-category : str</text><text x="803.35" y="362" font-size="13" text-anchor="start">-supplier : str</text><text x="803.35" y="379" font-size="13" text-anchor="start">-cost : float</text><text x="803.35" y="396" font-size="13" text-anchor="start">-wholesale : float</text><text x="803.35" y="413" font-size="13" text-anchor="start">-retail : float</text><text x="803.35" y="430" font-size="13" text-anchor="start">-manual_retail : bool</text><text x="803.35" y="447" font-size="13" text-anchor="start">-photo_path : str</text><text x="150" y="320" font-size="13" text-anchor="middle" font-weight="bold">SearchModule</text><text x="80.65" y="362" font-size="13" text-anchor="start">+search(query) list</text><text x="160" y="490" font-size="13" text-anchor="middle" font-weight="bold">ExportModule</text><text x="61.45" y="532" font-size="13" text-anchor="start">+export_pdf(category, path)</text><text x="510" y="620" font-size="13" text-anchor="middle" font-weight="bold">ImportModule</text><text x="418.75" y="648" font-size="13" text-anchor="start">-review_list : list</text><text x="418.75" y="677" font-size="13" text-anchor="start">+import_file(path, sheet)</text><text x="880" y="620" font-size="13" text-anchor="middle" font-weight="bold">PricingModule</text><text x="817.95" y="662" font-size="13" text-anchor="start">+compute(product)</text><text x="715.95" y="342" font-size="13" text-anchor="middle" paint-order="stroke" stroke="#fff" stroke-width="4">contains</text><text x="644.55" y="344" font-size="13" text-anchor="start" paint-order="stroke" stroke="#fff" stroke-width="4">1</text><text x="785.35" y="344" font-size="13" text-anchor="end" paint-order="stroke" stroke="#fff" stroke-width="4">0..*</text><text x="709" y="200" font-size="13" text-anchor="start" paint-order="stroke" stroke="#fff" stroke-width="4">saves and loads</text><text x="719" y="520" font-size="13" text-anchor="start" paint-order="stroke" stroke="#fff" stroke-width="4">calls on cost change</text><text x="889" y="535" font-size="13" text-anchor="start" paint-order="stroke" stroke="#fff" stroke-width="4">sets Pw and Pr</text><text x="519" y="520" font-size="13" text-anchor="start" paint-order="stroke" stroke="#fff" stroke-width="4">adds products</text><text x="709.6" y="635" font-size="13" text-anchor="middle" paint-order="stroke" stroke="#fff" stroke-width="4">calls per row</text><text x="315.4" y="328" font-size="13" text-anchor="middle" paint-order="stroke" stroke="#fff" stroke-width="4">reads</text><text x="349" y="460" font-size="13" text-anchor="start" paint-order="stroke" stroke="#fff" stroke-width="4">reads</text><text x="519" y="210" font-size="13" text-anchor="start" paint-order="stroke" stroke="#fff" stroke-width="4">invokes</text><text x="304" y="80" font-size="13" text-anchor="middle" paint-order="stroke" stroke="#fff" stroke-width="4">invokes</text><text x="243" y="62" font-size="13" text-anchor="middle" paint-order="stroke" stroke="#fff" stroke-width="4">invokes</text><text x="261" y="712" font-size="13" text-anchor="middle" paint-order="stroke" stroke="#fff" stroke-width="4">invokes</text></g></svg>